<svg viewBox="0 0 400 250" xmlns="http://www.w3.org/2000/svg" preserveAspectRatio="xMidYMid slice">
    <defs>
      <linearGradient id="bg-avatar-fiction-2" x1="0%" y1="0%" x2="100%" y2="100%">
        <stop offset="0%" stop-color="#1a0a0a"/>
        <stop offset="60%" stop-color="#000000"/>
        <stop offset="100%" stop-color="#7f1d1d" stop-opacity="0.5"/>
      </linearGradient>
      <radialGradient id="spot-avatar-fiction-2" cx="30%" cy="50%" r="60%">
        <stop offset="0%" stop-color="#c9a961" stop-opacity="0.15"/>
        <stop offset="100%" stop-color="#c9a961" stop-opacity="0"/>
      </radialGradient>
      <radialGradient id="vig-avatar-fiction-2" cx="50%" cy="50%" r="75%">
        <stop offset="55%" stop-color="black" stop-opacity="0"/>
        <stop offset="100%" stop-color="black" stop-opacity="0.85"/>
      </radialGradient>
      <filter id="grain-avatar-fiction-2">
        <feTurbulence type="fractalNoise" baseFrequency="0.9" numOctaves="2"/>
        <feColorMatrix values="0 0 0 0 0  0 0 0 0 0  0 0 0 0 0  0 0 0 0.04 0"/>
      </filter>
    </defs>
    <!-- Background -->
    <rect width="400" height="250" fill="url(#bg-avatar-fiction-2)"/>
    <rect width="400" height="250" fill="url(#spot-avatar-fiction-2)"/>
    <!-- Frame brackets nos cantos (corner marks de filme) -->
    <path d="M 12 12 L 12 28 M 12 12 L 28 12" stroke="#c9a961" stroke-width="1.2" opacity="0.5"/>
    <path d="M 388 12 L 388 28 M 388 12 L 372 12" stroke="#c9a961" stroke-width="1.2" opacity="0.5"/>
    <path d="M 12 238 L 12 222 M 12 238 L 28 238" stroke="#c9a961" stroke-width="1.2" opacity="0.5"/>
    <path d="M 388 238 L 388 222 M 388 238 L 372 238" stroke="#c9a961" stroke-width="1.2" opacity="0.5"/>
    <!-- Frame counter top-left -->
    <text x="22" y="35" font-family="monospace" font-size="10" fill="#c9a961" letter-spacing="3" opacity="0.75">EP · TEMPORADA 3</text>
    <!-- Símbolo temático à direita -->
    
      <!-- Avatar ficticio (silhueta + dashed halo + sparkles) -->
      <circle cx="310" cy="100" r="28" fill="none" stroke="#c9a961" stroke-width="2"/>
      <path d="M 254 220 L 254 184 Q 254 152 310 152 Q 366 152 366 184 L 366 220" fill="none" stroke="#c9a961" stroke-width="2" stroke-linecap="round"/>
      <!-- Halo dashed (ficticio = não real) -->
      <circle cx="310" cy="100" r="38" fill="none" stroke="#c9a961" stroke-width="0.8" opacity="0.5" stroke-dasharray="3,3"/>
      <circle cx="310" cy="100" r="48" fill="none" stroke="#c9a961" stroke-width="0.5" opacity="0.3" stroke-dasharray="2,4"/>
      <!-- Smile suave -->
      <path d="M 302 105 Q 310 112 318 105" fill="none" stroke="#c9a961" stroke-width="1.5" stroke-linecap="round" opacity="0.7"/>
      <!-- Olhos -->
      <circle cx="302" cy="95" r="2" fill="#c9a961" opacity="0.7"/>
      <circle cx="318" cy="95" r="2" fill="#c9a961" opacity="0.7"/>
      <!-- Sparkles "criação" -->
      <path d="M 250 60 L 252 56 L 254 60 L 258 62 L 254 64 L 252 68 L 250 64 L 246 62 Z" fill="#c9a961" opacity="0.85"/>
      <path d="M 370 60 L 372 56 L 374 60 L 378 62 L 374 64 L 372 68 L 370 64 L 366 62 Z" fill="#c9a961" opacity="0.7"/>
    
    <!-- Número gigante à esquerda -->
    <text x="40" y="180" font-family="serif" font-weight="700" font-size="160" fill="#c9a961" opacity="0.92" style="letter-spacing:-0.04em">02</text>
    <!-- Label do episódio (subtítulo) -->
    <text x="40" y="215" font-family="serif" font-size="13" fill="#c9a961" opacity="0.65" letter-spacing="6" style="text-transform:uppercase">Avatar Ficticio</text>
    <!-- Vinheta -->
    <rect width="400" height="250" fill="url(#vig-avatar-fiction-2)"/>
    <!-- Linha bottom decorativa -->
    <line x1="40" y1="225" x2="200" y2="225" stroke="#c9a961" stroke-width="1" opacity="0.5"/>
    <line x1="0" y1="248" x2="400" y2="248" stroke="#c9a961" stroke-width="2" opacity="0.7"/>
    <!-- Grain overlay -->
    <rect width="400" height="250" filter="url(#grain-avatar-fiction-2)" opacity="0.6"/>
  </svg>