<svg viewBox="0 0 400 250" xmlns="http://www.w3.org/2000/svg" preserveAspectRatio="xMidYMid slice">
    <defs>
      <linearGradient id="bg-deploy-4" x1="0%" y1="0%" x2="100%" y2="100%">
        <stop offset="0%" stop-color="#1a0a0a"/>
        <stop offset="60%" stop-color="#000000"/>
        <stop offset="100%" stop-color="#7f1d1d" stop-opacity="0.5"/>
      </linearGradient>
      <radialGradient id="spot-deploy-4" cx="30%" cy="50%" r="60%">
        <stop offset="0%" stop-color="#c9a961" stop-opacity="0.15"/>
        <stop offset="100%" stop-color="#c9a961" stop-opacity="0"/>
      </radialGradient>
      <radialGradient id="vig-deploy-4" cx="50%" cy="50%" r="75%">
        <stop offset="55%" stop-color="black" stop-opacity="0"/>
        <stop offset="100%" stop-color="black" stop-opacity="0.85"/>
      </radialGradient>
      <filter id="grain-deploy-4">
        <feTurbulence type="fractalNoise" baseFrequency="0.9" numOctaves="2"/>
        <feColorMatrix values="0 0 0 0 0  0 0 0 0 0  0 0 0 0 0  0 0 0 0.04 0"/>
      </filter>
    </defs>
    <!-- Background -->
    <rect width="400" height="250" fill="url(#bg-deploy-4)"/>
    <rect width="400" height="250" fill="url(#spot-deploy-4)"/>
    <!-- Frame brackets nos cantos (corner marks de filme) -->
    <path d="M 12 12 L 12 28 M 12 12 L 28 12" stroke="#c9a961" stroke-width="1.2" opacity="0.5"/>
    <path d="M 388 12 L 388 28 M 388 12 L 372 12" stroke="#c9a961" stroke-width="1.2" opacity="0.5"/>
    <path d="M 12 238 L 12 222 M 12 238 L 28 238" stroke="#c9a961" stroke-width="1.2" opacity="0.5"/>
    <path d="M 388 238 L 388 222 M 388 238 L 372 238" stroke="#c9a961" stroke-width="1.2" opacity="0.5"/>
    <!-- Frame counter top-left -->
    <text x="22" y="35" font-family="monospace" font-size="10" fill="#c9a961" letter-spacing="3" opacity="0.75">EP · TEMPORADA 4</text>
    <!-- Símbolo temático à direita -->
    
      <!-- Vercel deploy — triângulo icônico + edge network nodes -->
      <!-- Triângulo Vercel grande -->
      <polygon points="310,76 358,166 262,166" fill="none" stroke="#c9a961" stroke-width="2.5" stroke-linejoin="round"/>
      <polygon points="310,96 346,160 274,160" fill="#c9a961" opacity="0.25"/>
      <!-- Linha base / edge network -->
      <line x1="240" y1="186" x2="380" y2="186" stroke="#c9a961" stroke-width="0.8" opacity="0.5"/>
      <!-- Edge nodes (servidores globais) -->
      <circle cx="252" cy="186" r="3" fill="#c9a961"/>
      <circle cx="282" cy="186" r="3" fill="#c9a961" opacity="0.7"/>
      <circle cx="310" cy="186" r="4" fill="#c9a961"/>
      <circle cx="338" cy="186" r="3" fill="#c9a961" opacity="0.7"/>
      <circle cx="368" cy="186" r="3" fill="#c9a961"/>
      <!-- Linhas conectando triângulo aos nodes (deploy → edge) -->
      <line x1="310" y1="166" x2="252" y2="186" stroke="#c9a961" stroke-width="0.6" opacity="0.4" stroke-dasharray="2,2"/>
      <line x1="310" y1="166" x2="368" y2="186" stroke="#c9a961" stroke-width="0.6" opacity="0.4" stroke-dasharray="2,2"/>
      <line x1="310" y1="166" x2="310" y2="186" stroke="#c9a961" stroke-width="0.8" opacity="0.6"/>
      <!-- Sparkle (deploy success) -->
      <path d="M 364 70 L 366 66 L 368 70 L 372 72 L 368 74 L 366 78 L 364 74 L 360 72 Z" fill="#c9a961" opacity="0.85"/>
      <path d="M 248 76 L 250 73 L 252 76 L 255 77 L 252 78 L 250 81 L 248 78 L 245 77 Z" fill="#c9a961" opacity="0.6"/>
    
    <!-- Número gigante à esquerda -->
    <text x="40" y="180" font-family="serif" font-weight="700" font-size="160" fill="#c9a961" opacity="0.92" style="letter-spacing:-0.04em">04</text>
    <!-- Label do episódio (subtítulo) -->
    <text x="40" y="215" font-family="serif" font-size="13" fill="#c9a961" opacity="0.65" letter-spacing="6" style="text-transform:uppercase">Deploy</text>
    <!-- Vinheta -->
    <rect width="400" height="250" fill="url(#vig-deploy-4)"/>
    <!-- Linha bottom decorativa -->
    <line x1="40" y1="225" x2="200" y2="225" stroke="#c9a961" stroke-width="1" opacity="0.5"/>
    <line x1="0" y1="248" x2="400" y2="248" stroke="#c9a961" stroke-width="2" opacity="0.7"/>
    <!-- Grain overlay -->
    <rect width="400" height="250" filter="url(#grain-deploy-4)" opacity="0.6"/>
  </svg>